# Blender 3.5.0
# www.blender.org
mtllib glass.mtl
o Plane
v -5.948241 -1.742312 5.948241
v 5.948241 -1.742312 5.948241
v -5.948241 -1.742312 -5.948241
v 5.948241 -1.742312 -5.948241
vn -0.0000 1.0000 -0.0000
vt 0.000000 0.000000
vt 1.000000 0.000000
vt 0.000000 1.000000
vt 1.000000 1.000000
s 0
usemtl Material.002
f 1/1/1 2/2/1 4/4/1 3/3/1
o Cylinder
v 0.000000 -1.722854 -1.000000
v -0.000000 1.375077 -1.447316
v 0.195090 -1.722854 -0.980785
v 0.282357 1.375077 -1.419506
v 0.382683 -1.722854 -0.923880
v 0.553864 1.375077 -1.337146
v 0.555570 -1.722854 -0.831470
v 0.804086 1.375077 -1.203399
v 0.707107 -1.722854 -0.707107
v 1.023407 1.375077 -1.023407
v 0.831470 -1.722854 -0.555570
v 1.203399 1.375077 -0.804086
v 0.923880 -1.722854 -0.382683
v 1.337146 1.375077 -0.553864
v 0.980785 -1.722854 -0.195090
v 1.419506 1.375077 -0.282357
v 1.000000 -1.722854 0.000000
v 1.447316 1.375077 0.000000
v 0.980785 -1.722854 0.195090
v 1.419506 1.375077 0.282357
v 0.923880 -1.722854 0.382683
v 1.337146 1.375077 0.553864
v 0.831470 -1.722854 0.555570
v 1.203399 1.375077 0.804086
v 0.707107 -1.722854 0.707107
v 1.023407 1.375077 1.023407
v 0.555570 -1.722854 0.831470
v 0.804086 1.375077 1.203399
v 0.382683 -1.722854 0.923880
v 0.553864 1.375077 1.337146
v 0.195090 -1.722854 0.980785
v 0.282357 1.375077 1.419506
v 0.000000 -1.722854 1.000000
v -0.000000 1.375077 1.447316
v -0.195090 -1.722854 0.980785
v -0.282357 1.375077 1.419506
v -0.382683 -1.722854 0.923880
v -0.553864 1.375077 1.337146
v -0.555570 -1.722854 0.831470
v -0.804086 1.375077 1.203399
v -0.707107 -1.722854 0.707107
v -1.023407 1.375077 1.023407
v -0.831470 -1.722854 0.555570
v -1.203399 1.375077 0.804086
v -0.923880 -1.722854 0.382683
v -1.337146 1.375077 0.553864
v -0.980785 -1.722854 0.195090
v -1.419506 1.375077 0.282357
v -1.000000 -1.722854 0.000000
v -1.447316 1.375077 0.000000
v -0.980785 -1.722854 -0.195090
v -1.419506 1.375077 -0.282357
v -0.923880 -1.722854 -0.382683
v -1.337146 1.375077 -0.553864
v -0.831470 -1.722854 -0.555570
v -1.203399 1.375077 -0.804086
v -0.707107 -1.722854 -0.707107
v -1.023407 1.375077 -1.023407
v -0.555570 -1.722854 -0.831470
v -0.804086 1.375077 -1.203399
v -0.382683 -1.722854 -0.923880
v -0.553864 1.375077 -1.337146
v -0.195090 -1.722854 -0.980785
v -0.282357 1.375077 -1.419506
v 0.282357 2.193557 -1.419506
v -0.000000 2.193557 -1.447316
v 0.553864 2.193557 -1.337146
v 0.804086 2.193557 -1.203399
v 1.023407 2.193557 -1.023407
v 1.203399 2.193557 -0.804086
v 1.337146 2.193557 -0.553864
v 1.419506 2.193557 -0.282357
v 1.447316 2.193557 0.000000
v 1.419506 2.193557 0.282357
v 1.337146 2.193557 0.553864
v 1.203399 2.193557 0.804086
v 1.023407 2.193557 1.023407
v 0.804086 2.193557 1.203399
v 0.553864 2.193557 1.337146
v 0.282357 2.193557 1.419506
v -0.000000 2.193557 1.447316
v -0.282357 2.193557 1.419506
v -0.553864 2.193557 1.337146
v -0.804086 2.193557 1.203399
v -1.023407 2.193557 1.023407
v -1.203399 2.193557 0.804086
v -1.337146 2.193557 0.553864
v -1.419506 2.193557 0.282357
v -1.447316 2.193557 0.000000
v -1.419506 2.193557 -0.282357
v -1.337146 2.193557 -0.553864
v -1.203399 2.193557 -0.804086
v -1.023407 2.193557 -1.023407
v -0.804086 2.193557 -1.203399
v -0.553864 2.193557 -1.337146
v -0.282357 2.193557 -1.419506
vn 0.0970 -0.1422 -0.9851
vn 0.2873 -0.1422 -0.9472
vn 0.4666 -0.1422 -0.8730
vn 0.6279 -0.1422 -0.7652
vn 0.7652 -0.1422 -0.6279
vn 0.8730 -0.1422 -0.4666
vn 0.9472 -0.1422 -0.2873
vn 0.9851 -0.1422 -0.0970
vn 0.9851 -0.1422 0.0970
vn 0.9472 -0.1422 0.2873
vn 0.8730 -0.1422 0.4666
vn 0.7652 -0.1422 0.6279
vn 0.6279 -0.1422 0.7652
vn 0.4666 -0.1422 0.8730
vn 0.2873 -0.1422 0.9472
vn 0.0970 -0.1422 0.9851
vn -0.0970 -0.1422 0.9851
vn -0.2873 -0.1422 0.9472
vn -0.4666 -0.1422 0.8730
vn -0.6279 -0.1422 0.7652
vn -0.7652 -0.1422 0.6279
vn -0.8730 -0.1422 0.4666
vn -0.9472 -0.1422 0.2873
vn -0.9851 -0.1422 0.0970
vn -0.9851 -0.1422 -0.0970
vn -0.9472 -0.1422 -0.2873
vn -0.8730 -0.1422 -0.4666
vn -0.7652 -0.1422 -0.6279
vn -0.6279 -0.1422 -0.7652
vn -0.4666 -0.1422 -0.8730
vn 0.9569 -0.0000 -0.2903
vn -0.2873 -0.1422 -0.9472
vn -0.0970 -0.1422 -0.9851
vn -0.0000 -1.0000 -0.0000
vn 0.0980 -0.0000 0.9952
vn -0.9952 -0.0000 -0.0980
vn 0.4714 -0.0000 -0.8819
vn 0.7730 -0.0000 0.6344
vn -0.7730 -0.0000 0.6344
vn -0.4714 -0.0000 -0.8819
vn 0.9952 -0.0000 -0.0980
vn -0.0980 -0.0000 0.9952
vn -0.9569 -0.0000 -0.2903
vn 0.6344 -0.0000 -0.7730
vn 0.6344 -0.0000 0.7730
vn -0.8819 -0.0000 0.4714
vn -0.2903 -0.0000 -0.9569
vn 0.9952 -0.0000 0.0980
vn -0.2903 -0.0000 0.9569
vn -0.8819 -0.0000 -0.4714
vn 0.7730 -0.0000 -0.6344
vn 0.4714 -0.0000 0.8819
vn -0.9569 -0.0000 0.2903
vn 0.0980 -0.0000 -0.9952
vn -0.0980 -0.0000 -0.9952
vn 0.9569 -0.0000 0.2903
vn -0.4714 -0.0000 0.8819
vn -0.7730 -0.0000 -0.6344
vn 0.8819 -0.0000 -0.4714
vn 0.2903 -0.0000 0.9569
vn -0.9952 -0.0000 0.0980
vn 0.2903 -0.0000 -0.9569
vn 0.8819 -0.0000 0.4714
vn -0.6344 -0.0000 0.7730
vn -0.6344 -0.0000 -0.7730
vt 1.000000 0.500000
vt 0.000000 0.500000
vt 0.750000 0.490000
vt 1.000000 1.000000
vt 0.000000 1.000000
vt 0.968750 0.500000
vt 0.796822 0.485388
vt 0.968750 1.000000
vt 0.937500 0.500000
vt 0.841844 0.471731
vt 0.937500 1.000000
vt 0.906250 0.500000
vt 0.883337 0.449553
vt 0.906250 1.000000
vt 0.875000 0.500000
vt 0.919706 0.419706
vt 0.875000 1.000000
vt 0.843750 0.500000
vt 0.949553 0.383337
vt 0.843750 1.000000
vt 0.812500 0.500000
vt 0.971731 0.341844
vt 0.812500 1.000000
vt 0.781250 0.500000
vt 0.985388 0.296822
vt 0.781250 1.000000
vt 0.750000 0.500000
vt 0.990000 0.250000
vt 0.750000 1.000000
vt 0.718750 0.500000
vt 0.985388 0.203178
vt 0.718750 1.000000
vt 0.687500 0.500000
vt 0.971731 0.158156
vt 0.687500 1.000000
vt 0.656250 0.500000
vt 0.949553 0.116663
vt 0.656250 1.000000
vt 0.625000 0.500000
vt 0.919706 0.080294
vt 0.625000 1.000000
vt 0.593750 0.500000
vt 0.883337 0.050447
vt 0.593750 1.000000
vt 0.562500 0.500000
vt 0.841844 0.028269
vt 0.562500 1.000000
vt 0.531250 0.500000
vt 0.796822 0.014612
vt 0.531250 1.000000
vt 0.500000 0.500000
vt 0.750000 0.010000
vt 0.500000 1.000000
vt 0.468750 0.500000
vt 0.703178 0.014612
vt 0.468750 1.000000
vt 0.437500 0.500000
vt 0.658156 0.028269
vt 0.437500 1.000000
vt 0.406250 0.500000
vt 0.616663 0.050447
vt 0.406250 1.000000
vt 0.375000 0.500000
vt 0.580294 0.080294
vt 0.375000 1.000000
vt 0.343750 0.500000
vt 0.550447 0.116663
vt 0.343750 1.000000
vt 0.312500 0.500000
vt 0.528269 0.158156
vt 0.312500 1.000000
vt 0.281250 0.500000
vt 0.514612 0.203178
vt 0.281250 1.000000
vt 0.250000 0.500000
vt 0.510000 0.250000
vt 0.250000 1.000000
vt 0.218750 0.500000
vt 0.514612 0.296822
vt 0.218750 1.000000
vt 0.187500 0.500000
vt 0.528269 0.341844
vt 0.187500 1.000000
vt 0.156250 0.500000
vt 0.550447 0.383337
vt 0.156250 1.000000
vt 0.125000 0.500000
vt 0.580294 0.419706
vt 0.125000 1.000000
vt 0.093750 0.500000
vt 0.616663 0.449553
vt 0.093750 1.000000
vt 0.062500 0.500000
vt 0.658156 0.471731
vt 0.062500 1.000000
vt 0.031250 0.500000
vt 0.703178 0.485388
vt 0.031250 1.000000
vt 0.968750 1.000000
vt 1.000000 1.000000
vt 0.000000 1.000000
vt 0.937500 1.000000
vt 0.906250 1.000000
vt 0.875000 1.000000
vt 0.843750 1.000000
vt 0.812500 1.000000
vt 0.781250 1.000000
vt 0.750000 1.000000
vt 0.718750 1.000000
vt 0.687500 1.000000
vt 0.656250 1.000000
vt 0.625000 1.000000
vt 0.593750 1.000000
vt 0.562500 1.000000
vt 0.531250 1.000000
vt 0.500000 1.000000
vt 0.468750 1.000000
vt 0.437500 1.000000
vt 0.406250 1.000000
vt 0.375000 1.000000
vt 0.343750 1.000000
vt 0.312500 1.000000
vt 0.281250 1.000000
vt 0.250000 1.000000
vt 0.218750 1.000000
vt 0.187500 1.000000
vt 0.156250 1.000000
vt 0.125000 1.000000
vt 0.093750 1.000000
vt 0.062500 1.000000
vt 0.031250 1.000000
s 0
usemtl Material.001
f 5/5/2 6/8/2 8/12/2 7/10/2
f 7/10/3 8/12/3 10/15/3 9/13/3
f 9/13/4 10/15/4 12/18/4 11/16/4
f 11/16/5 12/18/5 14/21/5 13/19/5
f 13/19/6 14/21/6 16/24/6 15/22/6
f 15/22/7 16/24/7 18/27/7 17/25/7
f 17/25/8 18/27/8 20/30/8 19/28/8
f 19/28/9 20/30/9 22/33/9 21/31/9
f 21/31/10 22/33/10 24/36/10 23/34/10
f 23/34/11 24/36/11 26/39/11 25/37/11
f 25/37/12 26/39/12 28/42/12 27/40/12
f 27/40/13 28/42/13 30/45/13 29/43/13
f 29/43/14 30/45/14 32/48/14 31/46/14
f 31/46/15 32/48/15 34/51/15 33/49/15
f 33/49/16 34/51/16 36/54/16 35/52/16
f 35/52/17 36/54/17 38/57/17 37/55/17
f 37/55/18 38/57/18 40/60/18 39/58/18
f 39/58/19 40/60/19 42/63/19 41/61/19
f 41/61/20 42/63/20 44/66/20 43/64/20
f 43/64/21 44/66/21 46/69/21 45/67/21
f 45/67/22 46/69/22 48/72/22 47/70/22
f 47/70/23 48/72/23 50/75/23 49/73/23
f 49/73/24 50/75/24 52/78/24 51/76/24
f 51/76/25 52/78/25 54/81/25 53/79/25
f 53/79/26 54/81/26 56/84/26 55/82/26
f 55/82/27 56/84/27 58/87/27 57/85/27
f 57/85/28 58/87/28 60/90/28 59/88/28
f 59/88/29 60/90/29 62/93/29 61/91/29
f 61/91/30 62/93/30 64/96/30 63/94/30
f 63/94/31 64/96/31 66/99/31 65/97/31
f 20/30/32 18/27/32 75/110/32 76/111/32
f 65/97/33 66/99/33 68/102/33 67/100/33
f 67/100/34 68/102/34 6/9/34 5/6/34
f 5/7/35 7/11/35 9/14/35 11/17/35 13/20/35 15/23/35 17/26/35 19/29/35 21/32/35 23/35/35 25/38/35 27/41/35 29/44/35 31/47/35 33/50/35 35/53/35 37/56/35 39/59/35 41/62/35 43/65/35 45/68/35 47/71/35 49/74/35 51/77/35 53/80/35 55/83/35 57/86/35 59/89/35 61/92/35 63/95/35 65/98/35 67/101/35
f 38/57/36 36/54/36 84/119/36 85/120/36
f 56/84/37 54/81/37 93/128/37 94/129/37
f 12/18/38 10/15/38 71/106/38 72/107/38
f 30/45/39 28/42/39 80/115/39 81/116/39
f 48/72/40 46/69/40 89/124/40 90/125/40
f 66/99/41 64/96/41 98/133/41 99/134/41
f 22/33/42 20/30/42 76/111/42 77/112/42
f 40/60/43 38/57/43 85/120/43 86/121/43
f 58/87/44 56/84/44 94/129/44 95/130/44
f 14/21/45 12/18/45 72/107/45 73/108/45
f 32/48/46 30/45/46 81/116/46 82/117/46
f 50/75/47 48/72/47 90/125/47 91/126/47
f 68/102/48 66/99/48 99/134/48 100/135/48
f 24/36/49 22/33/49 77/112/49 78/113/49
f 42/63/50 40/60/50 86/121/50 87/122/50
f 60/90/51 58/87/51 95/130/51 96/131/51
f 16/24/52 14/21/52 73/108/52 74/109/52
f 34/51/53 32/48/53 82/117/53 83/118/53
f 52/78/54 50/75/54 91/126/54 92/127/54
f 8/12/55 6/8/55 70/104/55 69/103/55
f 6/9/56 68/102/56 100/135/56 70/105/56
f 26/39/57 24/36/57 78/113/57 79/114/57
f 44/66/58 42/63/58 87/122/58 88/123/58
f 62/93/59 60/90/59 96/131/59 97/132/59
f 18/27/60 16/24/60 74/109/60 75/110/60
f 36/54/61 34/51/61 83/118/61 84/119/61
f 54/81/62 52/78/62 92/127/62 93/128/62
f 10/15/63 8/12/63 69/103/63 71/106/63
f 28/42/64 26/39/64 79/114/64 80/115/64
f 46/69/65 44/66/65 88/123/65 89/124/65
f 64/96/66 62/93/66 97/132/66 98/133/66
